<svg xmlns="http://www.w3.org/2000/svg" width="1600" height="1600" viewBox="0 0 1600 1600" aria-hidden="true">
  <path
    fill="#2195f1"
    d="M428.76,892c-31.08-31.48-83.97-66.14-124.54-84.22l-165.13-73.58c-25.51-11.37-40.81-35-39.26-63.37,1.34-24.61,16.16-45.92,39.1-56.13l134.91-60.04c71.61-31.86,127.47-66.03,180.76-125.05l6.27-6.95c37.5-41.53,67.17-89.11,88.75-141.05l59.23-142.54c10.61-25.52,34.29-41.07,62.4-39.16,22.52,1.53,43.16,15.4,52.07,36.88l54.18,130.62c30.3,73.06,69.56,135.06,128.03,189.22,38.62,35.78,81.84,66,130.24,87.59l161.74,72.15c33.37,14.88,45.61,58.56,28.51,88.83-5.61,9.93-13.12,20.35-24.7,25.5l-155.36,69.14c-49.78,22.15-96.3,49.86-136.38,86.6l-12.59,11.55c-6.22,5.7-11.68,11.29-17.61,17.56-29.8,31.55-55.43,66.01-76.42,104.26-6.63,12.08-12.59,23.31-18.15,36.03l-59.12,135.4c-8.45,19.34-22.08,33.61-40.86,39.07-21.05,6.12-42.86,1.67-58.43-12.42-7.22-6.53-12.61-13.1-16.5-22.01l-55.83-127.92c-23.73-54.37-54.06-105.26-95.49-147.45l-24.82-25.28c-1.54-1.57-3.14-2.76-5.01-3.24Z"
  />
  <path
    fill="#7d57c1"
    d="M1277.4,1449.88c-4.85,11.7-9.3,22.16-14.64,32.78-6.11,12.16-18.56,18.14-31.8,17.45-15.32-.8-25.36-11.51-31.19-25.01l-11.15-25.84c-31.71-73.51-80.32-125.77-154.1-158.74l-49.16-21.97c-13.65-6.1-20.57-21.12-19.11-35.44s11.73-24.73,25.29-30.7l38.85-17.09c36.77-16.18,68.47-37.62,96.08-66.93,24.69-26.21,44.34-56.33,58.14-89.66l16.99-41.05c4.31-10.42,13.05-17.72,22.74-20.23,11.45-2.97,23.33-.13,31.32,7.6,3.83,3.71,6.72,6.82,8.73,11.63l21.47,51.3c22.38,53.49,78.72,114.56,130.93,138.16l61.24,27.68c14.94,6.75,23.84,20.31,21.93,37.47-.93,8.37-5.08,17.19-11.88,22.78-5.83,4.79-12.95,7.25-19.76,10.28l-42.26,18.83c-34.11,15.19-67.99,40.3-92.99,67.96-23.72,26.24-41.96,55.61-55.68,88.74Z"
  />
</svg>