<svg xmlns="http://www.w3.org/2000/svg" viewBox="0 0 230 230" xml:space="preserve">
  <rect width="230" height="230" fill="#009cad"/>

  <!-- 在上一版基础上稍微放大，并做视觉中心补偿 -->
  <g transform="translate(19 38) scale(2.48)">
    <path fill="#ffffff" d="M66.2 19.6s-.3-1.2-.6-1c-.3.1-1-.2-1.5-.5l-.8-.4h-2.5c-.3 0-1.6 0-2.6.4 0 0 1.5-.2 3.4.4.1 0 .2.1.2.1-.6.2-3.8.7-4.3.7-.6 0 2.2.3 3.6.2l-1 1c-.1.1-1.7.8-2 1-.4.2 1-.1 1-.1-.3.2-1.3.5-1.6.5 0 0 .3.4.7.5-.5.2-1.5.4-1.7.3 0 0 .5.1.8.3-.5.1-.9.2-1.2.3-.4-.4-.9-1.3-.9-2l2.6-5.8c.4.8 1 1.4.7 1-.2-.3-.4-.8-.5-1.4v-.3l.8-1.8.1-.1h.1l.4.2c.2.3.5.6.6.8.1.4.3.8.5 1.1 0 0-.4-1.2-.1-1.8-.7-.4-1.1-1.7-1.1-1.7l-.5.3c-.3 0-.5-.1-.6-.1-.5-.2-.8-.4-1-.5-1.7-.9-6.7-3.3-13.2-4.4-8-1.4-28-1.6-32.7-.9-4.9.9-3 .8-3 .8s9.1 1.1 17.4 3.9C17.3 11.3 9 12.1 9 12.1l-3.9 1c1.5-.2 3.4-.3 5.5-.3 1.2.1 2.7.2 4.4.4l5 .8c19.7 3.5 7.5 11.7 7.5 11.7l-.9.7c6.6-4 11.7-4 11.7-4 5.2.3 1.6 7.3 1.6 7.3C44 25.5 48.4 25 50.7 25c.5.1 1.2.3 1.6.5-.2.2-.9 1-1.1 1.2l-3.6.8c-.3.3 2.5 0 2.1.3-.4.3.2.2-.3.4-.4.2-2.9.4-3.3.6-.4.2 1.9.4 1.5.5-.4.2-.3.2-.2.2 0 0-.1 0-.3.1-.4.1-4 .2-4.4.3-.3.1 1.8.6 1.5.7-3.4.8-3.6 1.8-8.5.4-.4 0-2.4-1.7-2.6-1.7-.3 0 1 1.6.7 1.6-.3 0-3.3-1.5-3.5-1.5-.8-.1 1.6 1.3 1.6 1.3-.5-.1-.8-.3-1.3-.4-.4-.1-3.2-1.1-3.5-1.1-.2 0 1.6 1.1 1.5 1.1-.7-.1-1.2-.1-1.8-.1-.5 0-3.3-.7-3.6-.7s1.7.8 1.4.8c-1.7.2-2.7.5-2.7.5-2.4.8-.5.5-.5.5 7.6-1.3 10.3.5 13.8 1.6 7.9 2.5 15.9-2.5 15.9-2.5l-.5 1c.2 1-1 2-1 2l-.6.1-.5-.4-.6.7-.3 1.2c-.1.2-.2.7-.3 1.3-1.1.5-2.1 1.1-3 1.8-4.9 4.1-5.5 11.4-1.5 16.3s11.5 5.5 16.4 1.5l.2-.2c-4.1 2.5-9.6 1.6-12.9-2.4-3.6-4.3-3.3-10.5.9-14 4.1-3.5 10.4-2.7 14 1.5.5.5.9 1.2 1.2 1.8-.5-1.1-1.1-2.2-1.9-3.2-2.7-3.3-6.8-4.6-10.7-4 0-.9 1.1-1.5 1.1-1.5l1.7-.1c2.2-.9 3.1-2.9 3.1-2.9.3-1 .3-1.8.2-2.3l2.4-1.7h1.3l.5.1.4-.1h.2l.1-.1 2.7-1-.2 1.2.8-.6c.1.1.3.3.1.8-.1.2.6-.5.6-.5l.3-.3v.4l.3-.7.2-.5-1.4-1.2-2.8.4c-.2 0-.2.1-.3.2.3-.5.5-1.2.5-1.2l.1-1.6.9-1.2.5-.2c.2.1.5.1.7.1.2 0 .5.1.5.3l.2.1.6-.5H64.7v-.1l-.2.1c-.4-.2-.7-.7-.7-.7l.5-.5h1l.3.4.1-.2c.4.1.4.4.4.4v-.6zM49.3 34.5l-.5.6c.2-.3.5-.6.5-.6zm14.5-15.7l-.8.1-.7-.5 1.5.4z"/>
  </g>
</svg>